<?xml version="1.0" standalone="no"?>
<!DOCTYPE svg PUBLIC "-//W3C//DTD SVG 20010904//EN"
 "http://www.w3.org/TR/2001/REC-SVG-20010904/DTD/svg10.dtd">
<svg version="1.0" xmlns="http://www.w3.org/2000/svg"
 width="1250.000000pt" height="1250.000000pt" viewBox="0 0 1250.000000 1250.000000"
 preserveAspectRatio="xMidYMid meet">

<g transform="translate(0.000000,1250.000000) scale(0.100000,-0.100000)"
fill="#000000" stroke="none">
<path d="M4906 9368 c-10 -16 -1339 -3436 -1441 -3709 -3 -9 1 -24 10 -33 15
-14 56 -16 365 -16 l350 0 14 23 c7 12 177 491 377 1064 200 573 367 1039 370
1035 4 -4 13 -27 22 -52 121 -358 731 -2056 740 -2062 7 -4 169 -7 361 -5 303
2 350 4 359 18 9 14 -131 379 -1340 3489 -53 135 -100 251 -106 258 -16 21
-65 15 -81 -10z"/>
<path d="M7765 7311 c-33 -14 -56 -47 -61 -88 -7 -61 12 -85 81 -104 52 -14
60 -19 60 -40 0 -23 -2 -24 -72 -21 l-73 2 0 -34 c0 -42 13 -47 105 -48 101 0
143 40 132 127 -7 47 -22 59 -90 76 -55 12 -69 23 -60 46 3 9 24 13 64 13 l59
0 0 34 c0 22 -6 36 -16 40 -22 8 -105 6 -129 -3z"/>
<path d="M7060 7145 l0 -165 115 0 115 0 0 40 0 40 -75 0 c-73 0 -75 1 -75 25
0 23 4 24 63 27 62 3 62 3 65 35 l3 32 -63 3 c-60 3 -63 4 -66 31 l-3 27 75 0
76 0 0 35 0 35 -115 0 -115 0 0 -165z"/>
<path d="M7445 7298 c-12 -33 -104 -285 -110 -300 -6 -16 -1 -18 37 -18 39 0
45 3 55 30 11 28 14 30 68 30 53 0 57 -1 66 -30 10 -27 15 -30 55 -30 l43 0
-13 38 c-51 140 -95 260 -101 275 -9 21 -93 25 -100 5z m84 -185 c1 -8 -12
-13 -34 -13 -40 0 -42 6 -18 75 l16 50 18 -50 c10 -28 18 -56 18 -62z"/>
<path d="M8000 7145 l0 -165 115 0 115 0 0 40 0 40 -75 0 c-73 0 -75 1 -75 25
0 23 4 24 63 27 62 3 62 3 65 35 l3 32 -63 3 c-60 3 -63 4 -66 31 l-3 27 75 0
76 0 0 35 0 35 -115 0 -115 0 0 -165z"/>
<path d="M6850 6723 c-8 -3 -18 -11 -22 -17 -4 -6 -8 -759 -8 -1673 0 -1497 2
-1663 16 -1677 14 -14 100 -16 800 -16 l784 0 0 315 0 315 -477 2 -478 3 -3
378 -2 377 662 0 c514 0 669 3 688 13 l25 13 3 278 c2 249 1 281 -14 298 -16
17 -48 18 -691 18 l-673 0 0 380 0 380 480 0 480 0 0 310 0 310 -777 -1 c-428
0 -785 -3 -793 -6z"/>
<path d="M4545 5258 c-12 -33 -104 -285 -110 -300 -6 -16 -1 -18 37 -18 39 0
45 3 55 30 11 28 14 30 68 30 53 0 57 -1 66 -30 10 -27 15 -30 55 -30 l43 0
-13 38 c-51 140 -95 260 -101 275 -9 21 -93 25 -100 5z m84 -185 c1 -8 -12
-13 -34 -13 -40 0 -42 6 -18 75 l16 50 18 -50 c10 -28 18 -56 18 -62z"/>
<path d="M5107 5106 l57 -166 51 0 50 0 56 166 57 165 -46 -3 -47 -3 -35 -124
c-33 -119 -35 -123 -44 -90 -5 19 -21 75 -36 124 l-26 90 -47 3 -47 3 57 -165z"/>
</g>
</svg>
